<svg id="Layer_1" data-name="Layer 1" xmlns="http://www.w3.org/2000/svg" viewBox="0 0 318.84 144.64"><polygon points="130.17 36.85 99.86 19.7 99.86 54.69 130.17 36.85" style="fill:#fcd700"/><polygon points="68.01 109.09 68.01 143.99 69.16 144.64 99.15 126.98 68.14 109.02 68.01 109.09" style="fill:#16998c"/><polygon points="37.47 126.71 68.01 143.99 68.01 109.09 37.47 126.71" style="fill:#11585a"/><polygon points="37.39 91.2 6.61 73.36 6.92 109.42 37.39 91.47 37.39 91.2" style="fill:#7a9c3e"/><polygon points="6.92 109.42 37.39 126.66 37.39 91.47 6.92 109.42" style="fill:#8bc540"/><polygon points="68.01 108.94 37.63 91.34 37.39 91.47 37.39 126.66 37.47 126.71 68.01 109.09 68.01 108.94" style="fill:#1b468f"/><polygon points="99.73 90.79 68.14 109.02 99.15 126.98 99.86 126.56 99.86 90.86 99.73 90.79" style="fill:#13a8b6"/><polygon points="99.86 90.71 99.86 90.86 130.78 108.36 130.48 73.62 129.99 73.33 99.86 90.71" style="fill:#792c8b"/><polygon points="99.86 126.56 130.78 108.36 99.86 90.86 99.86 126.56" style="fill:#3e2d7b"/><polygon points="68.42 37.04 99.28 19.37 68.01 1.66 68.01 36.8 68.42 37.04" style="fill:#f69220"/><polygon points="99.86 90.71 129.99 73.33 99.86 55.57 99.86 90.71" style="fill:#aa1f24"/><polygon points="37.39 55.5 36.78 55.16 6.6 72.44 6.61 73.36 37.39 91.2 37.39 55.5" style="fill:#10743b"/><polygon points="99.86 55.57 129.99 73.33 130.48 73.05 130.17 36.85 99.86 54.69 99.86 55.57" style="fill:#db222b"/><polygon points="99.11 55.13 99.86 54.69 99.86 19.7 99.28 19.37 68.42 37.04 99.11 55.13" style="fill:#faa91d"/><polygon points="43.75 16.6 43.75 0 27.15 0 43.75 16.6" style="fill:#fcd700"/><polygon points="27.15 16.6 43.75 16.6 27.15 0 27.15 16.6" style="fill:#f69220"/><polygon points="0 28.86 12.88 15.98 0 15.98 0 28.86" style="fill:#10763c"/><polygon points="12.88 28.86 12.88 15.98 0 28.86 12.88 28.86" style="fill:#7a9e3f"/><polygon points="27.15 52.44 27.15 39.1 13.81 39.1 27.15 52.44" style="fill:#11585a"/><polygon points="13.81 52.44 27.15 52.44 13.81 39.1 13.81 52.44" style="fill:#13a8b6"/><polygon points="46.39 34.29 46.39 43.13 55.23 34.29 46.39 34.29" style="fill:#db222b"/><polygon points="46.39 43.13 55.23 43.13 55.23 34.29 46.39 43.13" style="fill:#a91f24"/><polygon points="33.2 32.58 33.2 28.08 28.7 28.08 33.2 32.58" style="fill:#3f2d79"/><polygon points="28.7 32.58 33.2 32.58 28.7 28.08 28.7 32.58" style="fill:#792b8b"/><path d="M534.19,511.68h6.53a.17.17,0,0,1,.18.13L551,534.14c.06.09.12.14.18.14s.19,0,.19-.14l9-22.33c.06-.09.12-.13.18-.13h4.37c.12,0,.18,0,.18.13l9,22.33c.06.09.12.14.18.14a.18.18,0,0,0,.19-.14l10.06-22.33c.06-.09.12-.13.18-.13h6.53q.27,0,.18.27l-14.93,33.12a.17.17,0,0,1-.18.14h-4.46s-.09,0-.18-.14L563,523.3a.18.18,0,0,0-.18-.14.28.28,0,0,0-.23.14l-8.78,21.77c-.09.1-.15.14-.18.14h-4.46c-.06,0-.12,0-.18-.14L534,512Q533.92,511.68,534.19,511.68Z" transform="translate(-393.27 -464.01)" style="fill:#231f20"/><path d="M587.62,544.66l16.4-32.8a.5.5,0,0,1,.32-.18h6.89a.34.34,0,0,1,.33.18L628,544.66a.38.38,0,0,1-.32.55h-6.29a.31.31,0,0,1-.32-.23l-2.76-5.51a.33.33,0,0,0-.32-.18h-20.4a.31.31,0,0,0-.28.18L594.56,545a.37.37,0,0,1-.32.23h-6.3a.33.33,0,0,1-.32-.18A.4.4,0,0,1,587.62,544.66ZM600.9,533h13.78a.24.24,0,0,0,.21-.12.17.17,0,0,0,0-.21l-6.93-13.87c-.07-.15-.14-.15-.23,0l-7,13.87C600.65,532.84,600.71,533,600.9,533Z" transform="translate(-393.27 -464.01)" style="fill:#231f20"/><path d="M634.43,545.17a.37.37,0,0,1-.41-.42V512.09a.36.36,0,0,1,.41-.41H640a.36.36,0,0,1,.41.41v26.32a.37.37,0,0,0,.41.42h26q.36,0,.27.36L665.21,545a.28.28,0,0,1-.27.19Z" transform="translate(-393.27 -464.01)" style="fill:#231f20"/><path d="M671.69,544.66l16.4-32.8a.5.5,0,0,1,.32-.18h6.9a.34.34,0,0,1,.32.18l16.44,32.8a.38.38,0,0,1-.32.55h-6.29a.31.31,0,0,1-.32-.23l-2.76-5.51a.33.33,0,0,0-.32-.18h-20.4a.29.29,0,0,0-.27.18L678.63,545a.37.37,0,0,1-.32.23H672a.33.33,0,0,1-.32-.18A.4.4,0,0,1,671.69,544.66ZM685,533h13.78a.24.24,0,0,0,.21-.12.16.16,0,0,0,0-.21L692,518.75c-.06-.15-.14-.15-.23,0l-7,13.87C684.72,532.84,684.78,533,685,533Z" transform="translate(-393.27 -464.01)" style="fill:#231f20"/><path d="M541.88,555.52l.74-2.11s0,0,0,0h13.71a0,0,0,0,1,0,0l.77,2.11a0,0,0,0,1,0,.05h-6.31s0,0,0,.06V566.4c0,.07,0,.11-.09.11h-2.29c-.06,0-.09,0-.09-.11V555.63s0-.06,0-.06h-6.31A0,0,0,0,1,541.88,555.52Z" transform="translate(-393.27 -464.01)" style="fill:#231f20"/><path d="M559.51,553.59c0-.13.08-.2.22-.2H571.8a.12.12,0,0,1,.12.09l.71,2.22a.1.1,0,0,1,0,.12.14.14,0,0,1-.12.06H562.2c-.14,0-.2.06-.2.2v2.46c0,.1,0,.15.13.15h7.7a.13.13,0,0,1,.11,0,.11.11,0,0,1,0,.11l-.7,2.22a.14.14,0,0,1-.15.1h-7a.12.12,0,0,0-.13.13v2.47a.25.25,0,0,0,0,.15.2.2,0,0,0,.15.06h10.3a.14.14,0,0,1,.12.06.09.09,0,0,1,0,.11l-.71,2.21a.12.12,0,0,1-.12.09H559.73c-.14,0-.22-.06-.22-.2Z" transform="translate(-393.27 -464.01)" style="fill:#231f20"/><path d="M588.14,565.75a.12.12,0,0,1-.08.09,13.63,13.63,0,0,1-2,.66,11.47,11.47,0,0,1-2.66.29,13.43,13.43,0,0,1-3.21-.39,9.73,9.73,0,0,1-2.87-1.21,6.75,6.75,0,0,1-2.06-2.06,5.4,5.4,0,0,1-.79-3,6.67,6.67,0,0,1,.45-2.55,6.15,6.15,0,0,1,1.19-1.88,6.54,6.54,0,0,1,1.67-1.3,9.91,9.91,0,0,1,1.91-.82,10.64,10.64,0,0,1,1.91-.43,13.15,13.15,0,0,1,1.66-.11,13.94,13.94,0,0,1,2.8.25c.82.17,1.5.33,2,.5.05,0,.08.06.08.11l.18,2.49c0,.08,0,.12-.11.12h-.06l-.68-.25c-.31-.11-.69-.21-1.12-.32s-.91-.2-1.44-.28a11.3,11.3,0,0,0-1.69-.12,8.41,8.41,0,0,0-2.36.33,7.1,7.1,0,0,0-2,1,4.85,4.85,0,0,0-1.4,1.46,3.48,3.48,0,0,0-.53,1.87,3,3,0,0,0,.33,1.43,3.61,3.61,0,0,0,.85,1.09,5.16,5.16,0,0,0,1.21.76,8.64,8.64,0,0,0,1.4.5,12.46,12.46,0,0,0,1.41.27,11.82,11.82,0,0,0,1.25.08,7.5,7.5,0,0,0,1.58-.16,11.21,11.21,0,0,0,1.39-.36,9.6,9.6,0,0,0,1.13-.43c.33-.15.59-.27.77-.37h0c.1,0,.13,0,.11.13Z" transform="translate(-393.27 -464.01)" style="fill:#231f20"/><path d="M591.09,553.54c0-.11,0-.17.16-.17h2.15c.12,0,.18.06.18.17v5c0,.12,0,.18.16.18h8.72a.16.16,0,0,0,.18-.18v-5c0-.11.05-.17.16-.17h2.14c.11,0,.16.06.16.17v12.8c0,.12-.05.18-.16.18H602.8c-.11,0-.16-.06-.16-.18v-5c0-.1-.06-.16-.18-.16h-8.72a.14.14,0,0,0-.16.16v5a.16.16,0,0,1-.18.18h-2.15c-.11,0-.16-.06-.16-.18Z" transform="translate(-393.27 -464.01)" style="fill:#231f20"/><path d="M608.53,553.39h1.82q.1,0,.12.06l9.3,9,.05,0s0,0,0-.06v-8.88a.16.16,0,0,1,.18-.18h2.12a.16.16,0,0,1,.18.18l0,12.76a.18.18,0,0,1-.2.2h-1.73a.12.12,0,0,1-.12-.06l-9.39-9.11s0,0-.06,0a.05.05,0,0,0,0,0v9c0,.12-.06.18-.2.18h-2.1a.16.16,0,0,1-.18-.18V553.57A.16.16,0,0,1,608.53,553.39Z" transform="translate(-393.27 -464.01)" style="fill:#231f20"/><path d="M633.4,566.79a8.75,8.75,0,0,1-1.78-.2,9.77,9.77,0,0,1-1.85-.61,10,10,0,0,1-1.74-1,7.45,7.45,0,0,1-1.45-1.35,5.9,5.9,0,0,1-1-1.69,5.39,5.39,0,0,1-.37-2,6.17,6.17,0,0,1,.37-2.21,6.32,6.32,0,0,1,1-1.73,7,7,0,0,1,1.47-1.31,8.45,8.45,0,0,1,1.74-.9,10.1,10.1,0,0,1,1.84-.52,9.08,9.08,0,0,1,1.75-.17,10,10,0,0,1,2.79.41,9,9,0,0,1,2.65,1.26,7,7,0,0,1,2,2.14,5.72,5.72,0,0,1,.79,3,6.15,6.15,0,0,1-.63,2.79,6.47,6.47,0,0,1-1.72,2.17,8,8,0,0,1-2.61,1.41A10.27,10.27,0,0,1,633.4,566.79Zm0-11.22a7.27,7.27,0,0,0-2.22.34,6,6,0,0,0-1.81.94,4.62,4.62,0,0,0-1.23,1.39,3.37,3.37,0,0,0-.45,1.69,3.41,3.41,0,0,0,.45,1.7,4.54,4.54,0,0,0,1.23,1.4,6,6,0,0,0,1.81.94,7.45,7.45,0,0,0,4.45,0,6.27,6.27,0,0,0,1.82-.94,4.54,4.54,0,0,0,1.23-1.4,3.41,3.41,0,0,0,.45-1.7,3.37,3.37,0,0,0-.45-1.69,4.62,4.62,0,0,0-1.23-1.39,6.27,6.27,0,0,0-1.82-.94A7.33,7.33,0,0,0,633.4,555.57Z" transform="translate(-393.27 -464.01)" style="fill:#231f20"/><path d="M644.62,566.51a.15.15,0,0,1-.16-.17v-12.8a.15.15,0,0,1,.16-.17h2.17a.15.15,0,0,1,.16.17v10.32a.14.14,0,0,0,.16.16H657.3c.1,0,.14.05.11.14l-.72,2.27a.12.12,0,0,1-.11.08Z" transform="translate(-393.27 -464.01)" style="fill:#231f20"/><path d="M667.12,566.79a8.75,8.75,0,0,1-1.78-.2,9.77,9.77,0,0,1-1.85-.61,10,10,0,0,1-1.74-1,7.45,7.45,0,0,1-1.45-1.35,5.9,5.9,0,0,1-1-1.69,5.39,5.39,0,0,1-.37-2,6.17,6.17,0,0,1,.37-2.21,6.32,6.32,0,0,1,1-1.73,7,7,0,0,1,1.47-1.31,8.45,8.45,0,0,1,1.74-.9,10.1,10.1,0,0,1,1.84-.52,9.08,9.08,0,0,1,1.75-.17,10,10,0,0,1,2.79.41,9,9,0,0,1,2.65,1.26,7,7,0,0,1,2,2.14,5.72,5.72,0,0,1,.79,3,6.15,6.15,0,0,1-.63,2.79,6.47,6.47,0,0,1-1.72,2.17,8,8,0,0,1-2.61,1.41A10.27,10.27,0,0,1,667.12,566.79Zm0-11.22a7.27,7.27,0,0,0-2.22.34,6,6,0,0,0-1.81.94,4.62,4.62,0,0,0-1.23,1.39,3.37,3.37,0,0,0-.45,1.69,3.41,3.41,0,0,0,.45,1.7,4.54,4.54,0,0,0,1.23,1.4,6,6,0,0,0,1.81.94,7.45,7.45,0,0,0,4.45,0,6.27,6.27,0,0,0,1.82-.94,4.54,4.54,0,0,0,1.23-1.4,3.41,3.41,0,0,0,.45-1.7,3.37,3.37,0,0,0-.45-1.69,4.62,4.62,0,0,0-1.23-1.39,6.27,6.27,0,0,0-1.82-.94A7.33,7.33,0,0,0,667.12,555.57Z" transform="translate(-393.27 -464.01)" style="fill:#231f20"/><path d="M686.72,566.79a13.57,13.57,0,0,1-3.22-.39,9.78,9.78,0,0,1-2.86-1.21,6.64,6.64,0,0,1-2.06-2.06,5.4,5.4,0,0,1-.79-3,6.18,6.18,0,0,1,.41-2.34,6.6,6.6,0,0,1,2.68-3.17,10.27,10.27,0,0,1,1.89-.91,11.54,11.54,0,0,1,2-.51,11.11,11.11,0,0,1,1.85-.16c.78,0,1.48,0,2.11.07s1.18.1,1.65.17.86.13,1.16.19l.62.14a.12.12,0,0,1,.11.13l.15,2.59a.13.13,0,0,1-.15.15l-.07,0a9.68,9.68,0,0,0-2.14-.65,17.52,17.52,0,0,0-3.44-.29,9.14,9.14,0,0,0-2.43.32,6.6,6.6,0,0,0-2,.91,4.47,4.47,0,0,0-1.36,1.45,3.69,3.69,0,0,0-.51,1.93,3,3,0,0,0,.33,1.43,3.61,3.61,0,0,0,.85,1.09,5.16,5.16,0,0,0,1.21.76,8.53,8.53,0,0,0,1.39.5,12.62,12.62,0,0,0,1.42.27,11.82,11.82,0,0,0,1.25.08,9.48,9.48,0,0,0,1.34-.1,11.82,11.82,0,0,0,1.19-.25,10.41,10.41,0,0,0,1-.33c.3-.11.54-.22.75-.31a.2.2,0,0,0,.11-.18v-1.82a.13.13,0,0,0-.15-.15h-5.6c-.1,0-.14,0-.14-.14v-2.18c0-.1,0-.14.14-.14h8.09a.12.12,0,0,1,.14.14v5.69a.26.26,0,0,1-.09.18c-.13.09-.39.24-.78.47a10.29,10.29,0,0,1-1.47.69,14,14,0,0,1-2,.63A10.38,10.38,0,0,1,686.72,566.79Z" transform="translate(-393.27 -464.01)" style="fill:#231f20"/><path d="M695.35,553.37h3.1s0,0,.07,0l5.22,5.73a.21.21,0,0,0,.18,0l4.72-5.73a.18.18,0,0,1,.09,0h3a.12.12,0,0,1,.12.08.1.1,0,0,1,0,.12l-6.74,7.66a.22.22,0,0,0,0,.09v5.06a.12.12,0,0,1-.13.13h-2.23a.12.12,0,0,1-.13-.13v-5.06a.25.25,0,0,0,0-.09l-7.29-7.66a.1.1,0,0,1,0-.12A.12.12,0,0,1,695.35,553.37Z" transform="translate(-393.27 -464.01)" style="fill:#231f20"/><path d="M444.45,519.94h6v38.22h-6Z" transform="translate(-393.27 -464.01)" style="fill:#231f20"/><path d="M481.74,525.89H471.5v32.27h-6V525.89H455.24v-5.95h26.5Z" transform="translate(-393.27 -464.01)" style="fill:#231f20"/></svg>